<svg aria-hidden="true" style="position: absolute; width: 0; height: 0; overflow: hidden;" version="1.1" xmlns="http://www.w3.org/2000/svg" xmlns:xlink="http://www.w3.org/1999/xlink">
<defs>
<symbol id="icon-check" viewBox="0 0 40 32">
<path d="M5 11l-5 5 15 15 25-25-5-5-20 20-10-10z"></path>
</symbol>
<symbol id="icon-question" viewBox="0 0 19 32">
<path d="M4.706 9.995c0-2.202 1.675-4.009 3.765-4.009h1.882c2.071 0 3.765 1.807 3.765 4.009v0.226c0 1.355-0.659 2.616-1.732 3.351l-2.485 1.694c-0.734 0.508-1.336 1.186-1.751 1.995s-0.621 1.713-0.621 2.635v0.094c0 1.111 0.828 1.995 1.882 1.995 1.035 0 1.882-0.885 1.882-1.995v-0.094c0-0.508 0.245-0.979 0.64-1.261l2.485-1.694c2.146-1.468 3.464-4.009 3.464-6.72v-0.226c0-4.424-3.388-8-7.529-8h-1.882c-4.16 0-7.529 3.576-7.529 8 0 1.111 0.828 1.995 1.882 1.995 1.035 0 1.882-0.885 1.882-1.995zM9.412 29.986c0.621 0 1.205-0.264 1.656-0.734 0.433-0.471 0.696-1.092 0.696-1.769 0-0.659-0.264-1.299-0.696-1.751-0.452-0.471-1.035-0.734-1.656-0.734-0.64 0-1.224 0.264-1.675 0.734-0.433 0.452-0.678 1.092-0.678 1.751 0 0.678 0.245 1.299 0.678 1.769 0.452 0.471 1.035 0.734 1.675 0.734z"></path>
</symbol>
<symbol id="icon-users" viewBox="0 0 34 32">
<path d="M23.189 24.747l-0.917 3.392-23.829-6.379 0.917-3.413c0 0 1.813-6.805 13.739-3.605 11.925 3.179 10.091 10.005 10.091 10.005zM21.568 6.955c0.32-1.173 0.277-2.411-0.128-3.584-0.384-1.152-1.109-2.155-2.069-2.901-0.981-0.747-2.133-1.173-3.371-1.259-1.216-0.085-2.432 0.192-3.477 0.811-1.067 0.619-1.92 1.515-2.453 2.603-0.533 1.109-0.747 2.325-0.576 3.541 0.149 1.216 0.661 2.347 1.472 3.264s1.856 1.579 3.051 1.899c1.579 0.427 3.264 0.192 4.672-0.619 1.429-0.811 2.453-2.176 2.88-3.755zM24.917 17.899c0.832 1.088 1.408 2.347 1.707 3.691 0.277 1.344 0.277 2.731-0.021 4.053l-0.917 3.413 6.805 1.835 0.917-3.413c0 0 1.664-6.187-8.491-9.579zM27.413 2.133c-1.152-0.32-2.411-0.277-3.541 0.128 0.64 1.728 0.725 3.605 0.256 5.376-0.469 1.792-1.493 3.371-2.923 4.544 0.789 0.917 1.856 1.579 3.029 1.877 1.579 0.427 2.795 0.469 4.672-0.619 1.899-1.088 2.453-2.155 2.88-3.733s0.192-3.264-0.619-4.693c-0.811-1.408-2.155-2.453-3.755-2.88z"></path>
</symbol>
<symbol id="icon-arrow" viewBox="0 0 42 32">
<path d="M30.72 6.277l-13.465-2.806c-1.354-0.271-2.191-1.551-1.92-2.905 0.295-1.354 1.575-2.191 2.929-1.92l19.274 4.012c1.354 0.271 2.191 1.551 1.895 2.905l-3.988 19.274c-0.295 1.354-1.575 2.191-2.905 1.92-1.354-0.271-2.191-1.551-1.92-2.905l2.806-13.465-32.098 21.046-2.683-4.111 32.074-21.046z"></path>
</symbol>
<symbol id="icon-x" viewBox="0 0 32 32">
<path stroke-linejoin="round" stroke-linecap="round" stroke-miterlimit="4" stroke-width="2.5" d="M24 8l-16 16"></path>
<path stroke-linejoin="round" stroke-linecap="round" stroke-miterlimit="4" stroke-width="2.5" d="M8 8l16 16"></path>
</symbol>
<symbol id="icon-eye-off" viewBox="0 0 32 32">
<path stroke-linejoin="round" stroke-linecap="round" stroke-miterlimit="4" stroke-width="3.2" d="M23.92 23.92c-2.279 1.737-5.054 2.7-7.92 2.747-9.333 0-14.667-10.667-14.667-10.667 1.659-3.091 3.959-5.791 6.747-7.92M13.2 5.653c0.918-0.215 1.857-0.322 2.8-0.32 9.333 0 14.667 10.667 14.667 10.667-0.809 1.514-1.775 2.94-2.88 4.253M18.827 18.827c-0.366 0.393-0.808 0.708-1.298 0.927s-1.020 0.336-1.557 0.346c-0.537 0.009-1.071-0.089-1.569-0.291s-0.95-0.501-1.33-0.88c-0.38-0.38-0.679-0.832-0.88-1.33s-0.3-1.032-0.29-1.569c0.009-0.537 0.127-1.067 0.346-1.558s0.534-0.932 0.927-1.298"></path>
<path stroke-linejoin="round" stroke-linecap="round" stroke-miterlimit="4" stroke-width="3.2" d="M1.333 1.333l29.333 29.333"></path>
</symbol>
<symbol id="icon-eye" viewBox="0 0 32 32">
<path stroke-linejoin="round" stroke-linecap="round" stroke-miterlimit="4" stroke-width="3.2" d="M1.333 16c0 0 5.333-10.667 14.667-10.667s14.667 10.667 14.667 10.667-5.333 10.667-14.667 10.667c-9.333 0-14.667-10.667-14.667-10.667z"></path>
<path stroke-linejoin="round" stroke-linecap="round" stroke-miterlimit="4" stroke-width="3.2" d="M16 20c2.209 0 4-1.791 4-4s-1.791-4-4-4c-2.209 0-4 1.791-4 4s1.791 4 4 4z"></path>
</symbol>
</defs>
</svg>
